# xmcd
#
# Track frame offsets: 
#        150
#        17310
#        34005
#        48405
#        61800
#        78410
#        93555
#        110668
#        121295
#        132318
#        149343
#        163815
#        177458
#        193303
#        208255
#        225620
#        236585
#        254453
#        268173
#        281983
#
# Disc length: 3960 seconds
#
# Revision: 4
# Processed by: cddbd v1.5.2PL0 Copyright (c) Steve Scherf et al.
# Submitted via: ExactAudioCopy v0.95b4
#
DISCID=2f0f7614
DTITLE=Various Artist - America's Dancing - Disc 1
DYEAR=1993
DGENRE=Country
TTITLE0=Joe Diffie - Honky Tonk Attitude
TTITLE1=Ricky Van Shelton - Backroads
TTITLE2=Mike Reid - Walk on Faith
TTITLE3=Brooks and Dunn - Brand New Man
TTITLE4=Paul Overstreet - Me and My Baby
TTITLE5=Patty Loveless - Jealous Bone
TTITLE6=Rodney Crowell - Lovin All Night
TTITLE7=Mark Chesnutt - Old Flames Have New Names
TTITLE8=Collin Raye - Every Second
TTITLE9=Alabama - If You're Gonna Play in Texas
TTITLE10=Aaron Tippin - I Wouldn't Have It Any Other Way
TTITLE11=Tanya Tucker - If Your Heart Ain't Busy Tonight
TTITLE12=Radney Foster - Nobody Wins
TTITLE13=Diamond Rio - Meet in the Middle
TTITLE14=Clinton Gregory - Play Ruby, Play
TTITLE15=Vern Gosdin - Set 'Em Up Joe
TTITLE16=Michelle Wright - Take It Like a Man
TTITLE17=John Anderson - Swingin'
TTITLE18=Pirates of the Mississippi - Speak of the Devil
TTITLE19=Mary Chapin Carpenter - Down at the Twist and Shout
EXTD=
EXTT0=
EXTT1=
EXTT2=
EXTT3=
EXTT4=
EXTT5=
EXTT6=
EXTT7=
EXTT8=
EXTT9=
EXTT10=
EXTT11=
EXTT12=
EXTT13=
EXTT14=
EXTT15=
EXTT16=
EXTT17=
EXTT18=
EXTT19=
PLAYORDER=
